<mxfile host="app.diagrams.net" agent="Mozilla/5.0 (Windows NT 10.0; Win64; x64) AppleWebKit/537.36 (KHTML, like Gecko) Chrome/129.0.0.0 Safari/537.36" version="24.7.16">
  <diagram name="Página-1" id="py3g39fmTeZ-Gk_5Mwkn">
    <mxGraphModel dx="1114" dy="724" grid="1" gridSize="10" guides="1" tooltips="1" connect="1" arrows="1" fold="1" page="1" pageScale="1" pageWidth="827" pageHeight="1169" math="0" shadow="0">
      <root>
        <mxCell id="0" />
        <mxCell id="1" parent="0" />
        <mxCell id="S_CVaPcC6IUma_5d8MPS-2" value="&lt;font style=&quot;font-size: 24px;&quot;&gt;Usuários&lt;/font&gt;" style="rounded=0;whiteSpace=wrap;html=1;" vertex="1" parent="1">
          <mxGeometry x="320" y="100" width="120" height="60" as="geometry" />
        </mxCell>
        <mxCell id="S_CVaPcC6IUma_5d8MPS-3" value="&lt;font style=&quot;font-size: 16px;&quot;&gt;Ong&lt;/font&gt;" style="shape=actor;whiteSpace=wrap;html=1;labelPosition=center;verticalLabelPosition=middle;align=center;verticalAlign=middle;labelBackgroundColor=none;labelBorderColor=none;spacingTop=30;" vertex="1" parent="1">
          <mxGeometry x="220" y="180" width="100" height="100" as="geometry" />
        </mxCell>
        <mxCell id="S_CVaPcC6IUma_5d8MPS-5" value="&lt;font style=&quot;font-size: 16px;&quot;&gt;Restaurante&lt;/font&gt;" style="shape=actor;whiteSpace=wrap;html=1;labelPosition=center;verticalLabelPosition=middle;align=center;verticalAlign=middle;labelBackgroundColor=none;labelBorderColor=none;spacingTop=30;" vertex="1" parent="1">
          <mxGeometry x="440" y="180" width="100" height="100" as="geometry" />
        </mxCell>
        <mxCell id="S_CVaPcC6IUma_5d8MPS-6" value="&lt;font style=&quot;font-size: 16px;&quot;&gt;Front-End (Thymeleaf)&lt;/font&gt;" style="rounded=1;whiteSpace=wrap;html=1;" vertex="1" parent="1">
          <mxGeometry x="320" y="310" width="120" height="60" as="geometry" />
        </mxCell>
        <mxCell id="S_CVaPcC6IUma_5d8MPS-11" value="&lt;font style=&quot;font-size: 16px;&quot;&gt;Back-End (Spring Boot)&lt;/font&gt;" style="rounded=1;whiteSpace=wrap;html=1;" vertex="1" parent="1">
          <mxGeometry x="320" y="390" width="120" height="60" as="geometry" />
        </mxCell>
        <mxCell id="S_CVaPcC6IUma_5d8MPS-12" value="&lt;font style=&quot;font-size: 16px;&quot;&gt;Spring Security&lt;/font&gt;" style="rounded=1;whiteSpace=wrap;html=1;" vertex="1" parent="1">
          <mxGeometry x="320" y="470" width="120" height="60" as="geometry" />
        </mxCell>
        <mxCell id="S_CVaPcC6IUma_5d8MPS-13" value="&lt;font style=&quot;font-size: 16px;&quot;&gt;Banco de Dados&lt;/font&gt;" style="rounded=1;whiteSpace=wrap;html=1;" vertex="1" parent="1">
          <mxGeometry x="320" y="550" width="120" height="60" as="geometry" />
        </mxCell>
        <mxCell id="S_CVaPcC6IUma_5d8MPS-14" value="" style="endArrow=classic;html=1;rounded=0;exitX=0;exitY=1;exitDx=0;exitDy=0;" edge="1" parent="1" source="S_CVaPcC6IUma_5d8MPS-2" target="S_CVaPcC6IUma_5d8MPS-3">
          <mxGeometry width="50" height="50" relative="1" as="geometry">
            <mxPoint x="390" y="380" as="sourcePoint" />
            <mxPoint x="540" y="340" as="targetPoint" />
            <Array as="points">
              <mxPoint x="300" y="180" />
            </Array>
          </mxGeometry>
        </mxCell>
        <mxCell id="S_CVaPcC6IUma_5d8MPS-17" value="" style="endArrow=classic;html=1;rounded=0;" edge="1" parent="1" target="S_CVaPcC6IUma_5d8MPS-5">
          <mxGeometry width="50" height="50" relative="1" as="geometry">
            <mxPoint x="440" y="160" as="sourcePoint" />
            <mxPoint x="490" y="110" as="targetPoint" />
          </mxGeometry>
        </mxCell>
        <mxCell id="S_CVaPcC6IUma_5d8MPS-20" value="" style="endArrow=classic;html=1;rounded=0;entryX=0.25;entryY=0;entryDx=0;entryDy=0;" edge="1" parent="1" target="S_CVaPcC6IUma_5d8MPS-6">
          <mxGeometry width="50" height="50" relative="1" as="geometry">
            <mxPoint x="320" y="280" as="sourcePoint" />
            <mxPoint x="370" y="230" as="targetPoint" />
          </mxGeometry>
        </mxCell>
        <mxCell id="S_CVaPcC6IUma_5d8MPS-21" value="" style="endArrow=classic;html=1;rounded=0;entryX=0.75;entryY=0;entryDx=0;entryDy=0;" edge="1" parent="1" target="S_CVaPcC6IUma_5d8MPS-6">
          <mxGeometry width="50" height="50" relative="1" as="geometry">
            <mxPoint x="440" y="280" as="sourcePoint" />
            <mxPoint x="490" y="230" as="targetPoint" />
          </mxGeometry>
        </mxCell>
        <mxCell id="S_CVaPcC6IUma_5d8MPS-23" value="" style="endArrow=classic;html=1;rounded=0;entryX=0.5;entryY=0;entryDx=0;entryDy=0;" edge="1" parent="1" target="S_CVaPcC6IUma_5d8MPS-11">
          <mxGeometry width="50" height="50" relative="1" as="geometry">
            <mxPoint x="380" y="370" as="sourcePoint" />
            <mxPoint x="430" y="320" as="targetPoint" />
          </mxGeometry>
        </mxCell>
        <mxCell id="S_CVaPcC6IUma_5d8MPS-24" value="" style="endArrow=classic;html=1;rounded=0;" edge="1" parent="1" target="S_CVaPcC6IUma_5d8MPS-12">
          <mxGeometry width="50" height="50" relative="1" as="geometry">
            <mxPoint x="380" y="450" as="sourcePoint" />
            <mxPoint x="430" y="400" as="targetPoint" />
          </mxGeometry>
        </mxCell>
        <mxCell id="S_CVaPcC6IUma_5d8MPS-25" value="" style="endArrow=classic;html=1;rounded=0;" edge="1" parent="1" target="S_CVaPcC6IUma_5d8MPS-13">
          <mxGeometry width="50" height="50" relative="1" as="geometry">
            <mxPoint x="380" y="530" as="sourcePoint" />
            <mxPoint x="430" y="480" as="targetPoint" />
          </mxGeometry>
        </mxCell>
      </root>
    </mxGraphModel>
  </diagram>
</mxfile>
